<?xml version="1.0" encoding="UTF-8" standalone="no"?>
<!-- Created with Inkscape (http://www.inkscape.org/) -->

<svg
   xmlns:dc="http://purl.org/dc/elements/1.1/"
   xmlns:cc="http://creativecommons.org/ns#"
   xmlns:rdf="http://www.w3.org/1999/02/22-rdf-syntax-ns#"
   xmlns:svg="http://www.w3.org/2000/svg"
   xmlns="http://www.w3.org/2000/svg"
   xmlns:sodipodi="http://sodipodi.sourceforge.net/DTD/sodipodi-0.dtd"
   xmlns:inkscape="http://www.inkscape.org/namespaces/inkscape"
   width="210mm"
   height="297mm"
   viewBox="0 0 744.09448819 1052.3622047"
   id="svg2"
   version="1.1"
   inkscape:version="0.91 r"
   sodipodi:docname="playerproj.svg">
  <defs
     id="defs4" />
  <sodipodi:namedview
     id="base"
     pagecolor="#ffffff"
     bordercolor="#666666"
     borderopacity="1.0"
     inkscape:pageopacity="0.0"
     inkscape:pageshadow="2"
     inkscape:zoom="1.4"
     inkscape:cx="189.24876"
     inkscape:cy="756.56626"
     inkscape:document-units="px"
     inkscape:current-layer="layer1"
     showgrid="false"
     inkscape:window-width="1366"
     inkscape:window-height="744"
     inkscape:window-x="0"
     inkscape:window-y="24"
     inkscape:window-maximized="1" />
  <metadata
     id="metadata7">
    <rdf:RDF>
      <cc:Work
         rdf:about="">
        <dc:format>image/svg+xml</dc:format>
        <dc:type
           rdf:resource="http://purl.org/dc/dcmitype/StillImage" />
        <dc:title></dc:title>
      </cc:Work>
    </rdf:RDF>
  </metadata>
  <g
     inkscape:label="Camada 1"
     inkscape:groupmode="layer"
     id="layer1">
    <g
       id="g4169"
       transform="translate(27.14286,14.285715)">
      <path
         inkscape:connector-curvature="0"
         id="path4159"
         d="m 209.58936,193.1582 c -12.39802,-0.24872 -15.40658,13.33653 -14.93555,31.2461 a 82.832512,82.832512 0 0 0 -8.19531,-0.41016 82.832512,82.832512 0 0 0 -24.8418,3.91016 c -2.95081,-20.3494 -9.33121,-34.50935 -25.32617,-27.05078 -16.03238,7.47602 -9.21728,21.51347 4.53907,36.89648 a 82.832512,82.832512 0 0 0 -23.44141,23.45508 c -15.38538,-13.75997 -29.425342,-20.58137 -36.902352,-4.54688 -7.44937,15.97524 6.66753,22.36077 26.976572,25.31641 a 82.832512,82.832512 0 0 0 -3.83789,24.85156 82.832512,82.832512 0 0 0 0.49218,8.19922 c -20.279022,-0.54506 -35.037952,3.35449 -30.509762,20.25391 4.48848,16.75122 19.00278,12.96292 36.095702,2.56054 a 82.832512,82.832512 0 0 0 18.5,27.78321 c -15.23026,12.33602 -23.34797,24.48789 -9.32812,34.30468 13.87817,9.71761 22.48942,-1.72656 28.85351,-19.93359 a 82.832512,82.832512 0 0 0 32.23242,9.33984 c -3.42309,18.61243 -1.53289,32.47862 15.14454,31.01954 16.57285,-1.44994 16.13415,-15.26882 9.64843,-32.84571 a 82.832512,82.832512 0 0 0 30.65821,-13.98437 c 9.25878,16.11238 19.51685,25.18041 31.2207,13.47656 11.70215,-11.70215 2.63731,-21.95907 -13.4707,-31.2168 a 82.832512,82.832512 0 0 0 14.00586,-30.65039 c 17.56318,6.47556 31.36921,6.9056 32.81835,-9.6582 1.45806,-16.66563 -12.38793,-18.5655 -30.98046,-15.15234 a 82.832512,82.832512 0 0 0 -9.38868,-32.22266 c 18.21262,-6.36443 29.66072,-14.97681 19.94141,-28.85742 -9.8127,-14.014 -21.95834,-5.90937 -34.28906,9.30859 a 82.832512,82.832512 0 0 0 -27.80078,-18.47266 c 10.40498,-17.09537 14.19643,-31.61454 -2.55664,-36.10351 -1.94057,-0.51997 -3.71144,-0.78409 -5.32227,-0.81641 z"
         style="opacity:1;fill:#000228;fill-opacity:1;stroke:#54fff7;stroke-width:7.5;stroke-miterlimit:4;stroke-dasharray:none;stroke-opacity:1" />
      <circle
         r="24.285715"
         cy="288.43365"
         cx="153.58246"
         id="circle4161"
         style="opacity:1;fill:#000228;fill-opacity:1;stroke:#54fff7;stroke-width:7.5;stroke-miterlimit:4;stroke-dasharray:none;stroke-opacity:1" />
      <circle
         style="opacity:1;fill:#000228;fill-opacity:1;stroke:#54fff7;stroke-width:7.5;stroke-miterlimit:4;stroke-dasharray:none;stroke-opacity:1"
         id="circle4163"
         cx="219.29674"
         cy="288.43365"
         r="24.285715" />
      <circle
         r="3.9285715"
         cy="292.71936"
         cx="152.5"
         id="circle4165"
         style="opacity:1;fill:#000228;fill-opacity:1;stroke:#54fff7;stroke-width:7.5;stroke-miterlimit:4;stroke-dasharray:none;stroke-opacity:1" />
      <circle
         style="opacity:1;fill:#000228;fill-opacity:1;stroke:#54fff7;stroke-width:7.5;stroke-miterlimit:4;stroke-dasharray:none;stroke-opacity:1"
         id="circle4167"
         cx="217.5"
         cy="292.00507"
         r="3.9285715" />
    </g>
  </g>
</svg>
